<?xml version="1.0" encoding="UTF-8" standalone="no"?>
<!-- Created with Inkscape (http://www.inkscape.org/) -->

<svg
   xmlns:dc="http://purl.org/dc/elements/1.1/"
   xmlns:cc="http://creativecommons.org/ns#"
   xmlns:rdf="http://www.w3.org/1999/02/22-rdf-syntax-ns#"
   xmlns:svg="http://www.w3.org/2000/svg"
   xmlns="http://www.w3.org/2000/svg"
   xmlns:sodipodi="http://sodipodi.sourceforge.net/DTD/sodipodi-0.dtd"
   xmlns:inkscape="http://www.inkscape.org/namespaces/inkscape"
   width="200"
   height="241"
   id="svg2"
   sodipodi:version="0.32"
   inkscape:version="0.47 r22583"
   version="1.0"
   sodipodi:docname="Coat_of_Arms_of_Izhevsk_(Udmurtia).svg"
   inkscape:output_extension="org.inkscape.output.svg.inkscape">
  <defs
     id="defs4" />
  <sodipodi:namedview
     id="base"
     pagecolor="#ffffff"
     bordercolor="#666666"
     borderopacity="1.0"
     gridtolerance="10000"
     guidetolerance="10"
     objecttolerance="10"
     inkscape:pageopacity="0.0"
     inkscape:pageshadow="2"
     inkscape:zoom="11.2"
     inkscape:cx="103.11718"
     inkscape:cy="200.78099"
     inkscape:document-units="px"
     inkscape:current-layer="layer1"
     showgrid="false"
     borderlayer="true"
     inkscape:window-width="1264"
     inkscape:window-height="750"
     inkscape:window-x="-8"
     inkscape:window-y="-8"
     inkscape:window-maximized="0" />
  <metadata
     id="metadata7">
    <rdf:RDF>
      <cc:Work
         rdf:about="">
        <dc:format>image/svg+xml</dc:format>
        <dc:type
           rdf:resource="http://purl.org/dc/dcmitype/StillImage" />
      </cc:Work>
    </rdf:RDF>
  </metadata>
  <g
     inkscape:label="Layer 1"
     inkscape:groupmode="layer"
     id="layer1"
     transform="translate(0,-811.36218)">
    <path
       style="opacity:1;fill:#3598d4;fill-opacity:1;fill-rule:evenodd;stroke:none;stroke-width:2.00000119;stroke-linecap:butt;stroke-linejoin:miter;marker:none;marker-start:none;marker-mid:none;marker-end:none;stroke-miterlimit:4;stroke-dasharray:none;stroke-dashoffset:0;stroke-opacity:1;visibility:visible;display:inline;overflow:visible;enable-background:accumulate"
       d="M 200,812.36219 L 100,812.36219 L 100,1052.3622 C 104.30776,1043.2135 108.41636,1033.9454 122,1030.3622 L 178,1030.3622 C 187.46139,1028.8855 197.48925,1019.6384 200,1008.3622 L 200,812.36219 z"
       id="path3316"
       sodipodi:nodetypes="ccccssc" />
    <path
       style="opacity:1;fill:#ffffff;fill-opacity:1;fill-rule:evenodd;stroke:none;stroke-width:2.00000118999999990;stroke-linecap:butt;stroke-linejoin:miter;marker:none;marker-start:none;marker-mid:none;marker-end:none;stroke-miterlimit:4;stroke-dasharray:none;stroke-dashoffset:0;stroke-opacity:1;visibility:visible;display:inline;overflow:visible;enable-background:accumulate"
       d="M 0,1 L 100,1 L 100,241 C 95.692237,231.85132 91.583638,222.58315 78,219 L 22,219 C 12.53861,217.52329 2.5107484,208.27618 0,197 L 0,1 z"
       id="path3314"
       transform="translate(0,811.36218)"
       sodipodi:nodetypes="ccccssc" />
    <path
       sodipodi:type="arc"
       style="opacity:1;fill:#ea1d28;fill-opacity:1;fill-rule:evenodd;stroke:none;stroke-width:1;stroke-linejoin:round;stroke-miterlimit:4;stroke-dasharray:none;stroke-opacity:1"
       id="path2476"
       sodipodi:cx="58.588848"
       sodipodi:cy="164.22841"
       sodipodi:rx="3.0304577"
       sodipodi:ry="2.5253813"
       d="m 61.619306,164.22841 c 0,1.39473 -1.356782,2.52538 -3.030458,2.52538 -1.673675,0 -3.030458,-1.13065 -3.030458,-2.52538 0,-1.39473 1.356783,-2.52538 3.030458,-2.52538 1.673676,0 3.030458,1.13065 3.030458,2.52538 z"
       transform="matrix(1.1178867,0,0,1.341464,-7.4956939,754.05568)" />
    <path
       sodipodi:type="arc"
       style="opacity:1;fill:#ea1d28;fill-opacity:1;fill-rule:evenodd;stroke:none;stroke-width:1;stroke-linejoin:round;stroke-miterlimit:4;stroke-dasharray:none;stroke-opacity:1"
       id="path3248"
       sodipodi:cx="58.588848"
       sodipodi:cy="164.22841"
       sodipodi:rx="3.0304577"
       sodipodi:ry="2.5253813"
       d="m 61.619306,164.22841 c 0,1.39473 -1.356782,2.52538 -3.030458,2.52538 -1.673675,0 -3.030458,-1.13065 -3.030458,-2.52538 0,-1.39473 1.356783,-2.52538 3.030458,-2.52538 1.673676,0 3.030458,1.13065 3.030458,2.52538 z"
       transform="matrix(1.1178867,0,0,1.341464,18.852043,758.062)" />
    <path
       sodipodi:type="arc"
       style="opacity:1;fill:#ea1d28;fill-opacity:1;fill-rule:evenodd;stroke:none;stroke-width:1;stroke-linejoin:round;stroke-miterlimit:4;stroke-dasharray:none;stroke-opacity:1"
       id="path3250"
       sodipodi:cx="58.588848"
       sodipodi:cy="164.22841"
       sodipodi:rx="3.0304577"
       sodipodi:ry="2.5253813"
       d="m 61.619306,164.22841 c 0,1.39473 -1.356782,2.52538 -3.030458,2.52538 -1.673675,0 -3.030458,-1.13065 -3.030458,-2.52538 0,-1.39473 1.356783,-2.52538 3.030458,-2.52538 1.673676,0 3.030458,1.13065 3.030458,2.52538 z"
       transform="matrix(1.1178867,0,0,1.341464,0.7955667,759.3247)" />
    <path
       sodipodi:type="arc"
       style="opacity:1;fill:#ea1d28;fill-opacity:1;fill-rule:evenodd;stroke:none;stroke-width:1;stroke-linejoin:round;stroke-miterlimit:4;stroke-dasharray:none;stroke-opacity:1"
       id="path3252"
       sodipodi:cx="58.588848"
       sodipodi:cy="164.22841"
       sodipodi:rx="3.0304577"
       sodipodi:ry="2.5253813"
       d="m 61.619306,164.22841 c 0,1.39473 -1.356782,2.52538 -3.030458,2.52538 -1.673675,0 -3.030458,-1.13065 -3.030458,-2.52538 0,-1.39473 1.356783,-2.52538 3.030458,-2.52538 1.673676,0 3.030458,1.13065 3.030458,2.52538 z"
       transform="matrix(1.1178867,0,0,1.341464,9.5081329,753.26378)" />
    <path
       sodipodi:type="arc"
       style="opacity:1;fill:#ea1d28;fill-opacity:1;fill-rule:evenodd;stroke:none;stroke-width:1;stroke-linejoin:round;stroke-miterlimit:4;stroke-dasharray:none;stroke-opacity:1"
       id="path3254"
       sodipodi:cx="58.588848"
       sodipodi:cy="164.22841"
       sodipodi:rx="3.0304577"
       sodipodi:ry="2.5253813"
       d="m 61.619306,164.22841 c 0,1.39473 -1.356782,2.52538 -3.030458,2.52538 -1.673675,0 -3.030458,-1.13065 -3.030458,-2.52538 0,-1.39473 1.356783,-2.52538 3.030458,-2.52538 1.673676,0 3.030458,1.13065 3.030458,2.52538 z"
       transform="matrix(1.1178867,0,0,1.341464,0.5043061,748.59183)" />
    <path
       sodipodi:type="arc"
       style="opacity:1;fill:#ea1d28;fill-opacity:1;fill-rule:evenodd;stroke:none;stroke-width:1;stroke-linejoin:round;stroke-miterlimit:4;stroke-dasharray:none;stroke-opacity:1"
       id="path3256"
       sodipodi:cx="58.588848"
       sodipodi:cy="164.22841"
       sodipodi:rx="3.0304577"
       sodipodi:ry="2.5253813"
       d="m 61.619306,164.22841 c 0,1.39473 -1.356782,2.52538 -3.030458,2.52538 -1.673675,0 -3.030458,-1.13065 -3.030458,-2.52538 0,-1.39473 1.356783,-2.52538 3.030458,-2.52538 1.673676,0 3.030458,1.13065 3.030458,2.52538 z"
       transform="matrix(1.1178867,0,0,1.341464,9.7606711,774.47699)" />
    <path
       sodipodi:type="arc"
       style="opacity:1;fill:#ea1d28;fill-opacity:1;fill-rule:evenodd;stroke:none;stroke-width:1;stroke-linejoin:round;stroke-miterlimit:4;stroke-dasharray:none;stroke-opacity:1"
       id="path3258"
       sodipodi:cx="58.588848"
       sodipodi:cy="164.22841"
       sodipodi:rx="3.0304577"
       sodipodi:ry="2.5253813"
       d="m 61.619306,164.22841 c 0,1.39473 -1.356782,2.52538 -3.030458,2.52538 -1.673675,0 -3.030458,-1.13065 -3.030458,-2.52538 0,-1.39473 1.356783,-2.52538 3.030458,-2.52538 1.673676,0 3.030458,1.13065 3.030458,2.52538 z"
       transform="matrix(1.1178867,0,0,1.341464,18.725775,779.14894)" />
    <path
       sodipodi:type="arc"
       style="opacity:1;fill:#ea1d28;fill-opacity:1;fill-rule:evenodd;stroke:none;stroke-width:1;stroke-linejoin:round;stroke-miterlimit:4;stroke-dasharray:none;stroke-opacity:1"
       id="path3260"
       sodipodi:cx="58.588848"
       sodipodi:cy="164.22841"
       sodipodi:rx="3.0304577"
       sodipodi:ry="2.5253813"
       d="m 61.619306,164.22841 c 0,1.39473 -1.356782,2.52538 -3.030458,2.52538 -1.673675,0 -3.030458,-1.13065 -3.030458,-2.52538 0,-1.39473 1.356783,-2.52538 3.030458,-2.52538 1.673676,0 3.030458,1.13065 3.030458,2.52538 z"
       transform="matrix(1.1178867,0,0,1.341464,18.725774,768.54234)" />
    <path
       sodipodi:type="arc"
       style="opacity:1;fill:#ea1d28;fill-opacity:1;fill-rule:evenodd;stroke:none;stroke-width:1;stroke-linejoin:round;stroke-miterlimit:4;stroke-dasharray:none;stroke-opacity:1"
       id="path3262"
       sodipodi:cx="58.588848"
       sodipodi:cy="164.22841"
       sodipodi:rx="3.0304577"
       sodipodi:ry="2.5253813"
       d="m 61.619306,164.22841 c 0,1.39473 -1.356782,2.52538 -3.030458,2.52538 -1.673675,0 -3.030458,-1.13065 -3.030458,-2.52538 0,-1.39473 1.356783,-2.52538 3.030458,-2.52538 1.673676,0 3.030458,1.13065 3.030458,2.52538 z"
       transform="matrix(1.1178867,0,0,1.341464,9.5081326,764.12293)" />
    <path
       sodipodi:type="arc"
       style="opacity:1;fill:#ea1d28;fill-opacity:1;fill-rule:evenodd;stroke:none;stroke-width:1;stroke-linejoin:round;stroke-miterlimit:4;stroke-dasharray:none;stroke-opacity:1"
       id="path3264"
       sodipodi:cx="58.588848"
       sodipodi:cy="164.22841"
       sodipodi:rx="3.0304577"
       sodipodi:ry="2.5253813"
       d="m 61.619306,164.22841 c 0,1.39473 -1.356782,2.52538 -3.030458,2.52538 -1.673675,0 -3.030458,-1.13065 -3.030458,-2.52538 0,-1.39473 1.356783,-2.52538 3.030458,-2.52538 1.673676,0 3.030458,1.13065 3.030458,2.52538 z"
       transform="matrix(1.1178867,0,0,1.341464,0.7955671,769.9313)" />
    <path
       sodipodi:type="arc"
       style="opacity:1;fill:#ea1d28;fill-opacity:1;fill-rule:evenodd;stroke:none;stroke-width:1;stroke-linejoin:round;stroke-miterlimit:4;stroke-dasharray:none;stroke-opacity:1"
       id="path3266"
       sodipodi:cx="58.588848"
       sodipodi:cy="164.22841"
       sodipodi:rx="3.0304577"
       sodipodi:ry="2.5253813"
       d="m 61.619306,164.22841 c 0,1.39473 -1.356782,2.52538 -3.030458,2.52538 -1.673675,0 -3.030458,-1.13065 -3.030458,-2.52538 0,-1.39473 1.356783,-2.52538 3.030458,-2.52538 1.673676,0 3.030458,1.13065 3.030458,2.52538 z"
       transform="matrix(-1.1178867,0,0,1.341464,205.03821,753.982)" />
    <path
       sodipodi:type="arc"
       style="opacity:1;fill:#ea1d28;fill-opacity:1;fill-rule:evenodd;stroke:none;stroke-width:1;stroke-linejoin:round;stroke-miterlimit:4;stroke-dasharray:none;stroke-opacity:1"
       id="path3268"
       sodipodi:cx="58.588848"
       sodipodi:cy="164.22841"
       sodipodi:rx="3.0304577"
       sodipodi:ry="2.5253813"
       d="m 61.619306,164.22841 c 0,1.39473 -1.356782,2.52538 -3.030458,2.52538 -1.673675,0 -3.030458,-1.13065 -3.030458,-2.52538 0,-1.39473 1.356783,-2.52538 3.030458,-2.52538 1.673676,0 3.030458,1.13065 3.030458,2.52538 z"
       transform="matrix(-1.1178867,0,0,1.341464,178.69048,757.98832)" />
    <path
       sodipodi:type="arc"
       style="opacity:1;fill:#ea1d28;fill-opacity:1;fill-rule:evenodd;stroke:none;stroke-width:1;stroke-linejoin:round;stroke-miterlimit:4;stroke-dasharray:none;stroke-opacity:1"
       id="path3270"
       sodipodi:cx="58.588848"
       sodipodi:cy="164.22841"
       sodipodi:rx="3.0304577"
       sodipodi:ry="2.5253813"
       d="m 61.619306,164.22841 c 0,1.39473 -1.356782,2.52538 -3.030458,2.52538 -1.673675,0 -3.030458,-1.13065 -3.030458,-2.52538 0,-1.39473 1.356783,-2.52538 3.030458,-2.52538 1.673676,0 3.030458,1.13065 3.030458,2.52538 z"
       transform="matrix(-1.1178867,0,0,1.341464,196.74695,759.25102)" />
    <path
       sodipodi:type="arc"
       style="opacity:1;fill:#ea1d28;fill-opacity:1;fill-rule:evenodd;stroke:none;stroke-width:1;stroke-linejoin:round;stroke-miterlimit:4;stroke-dasharray:none;stroke-opacity:1"
       id="path3272"
       sodipodi:cx="58.588848"
       sodipodi:cy="164.22841"
       sodipodi:rx="3.0304577"
       sodipodi:ry="2.5253813"
       d="m 61.619306,164.22841 c 0,1.39473 -1.356782,2.52538 -3.030458,2.52538 -1.673675,0 -3.030458,-1.13065 -3.030458,-2.52538 0,-1.39473 1.356783,-2.52538 3.030458,-2.52538 1.673676,0 3.030458,1.13065 3.030458,2.52538 z"
       transform="matrix(-1.1178867,0,0,1.341464,188.03439,753.1901)" />
    <path
       sodipodi:type="arc"
       style="opacity:1;fill:#ea1d28;fill-opacity:1;fill-rule:evenodd;stroke:none;stroke-width:1;stroke-linejoin:round;stroke-miterlimit:4;stroke-dasharray:none;stroke-opacity:1"
       id="path3274"
       sodipodi:cx="58.588848"
       sodipodi:cy="164.22841"
       sodipodi:rx="3.0304577"
       sodipodi:ry="2.5253813"
       d="m 61.619306,164.22841 c 0,1.39473 -1.356782,2.52538 -3.030458,2.52538 -1.673675,0 -3.030458,-1.13065 -3.030458,-2.52538 0,-1.39473 1.356783,-2.52538 3.030458,-2.52538 1.673676,0 3.030458,1.13065 3.030458,2.52538 z"
       transform="matrix(-1.1178867,0,0,1.341464,196.74695,748.51815)" />
    <path
       sodipodi:type="arc"
       style="opacity:1;fill:#ea1d28;fill-opacity:1;fill-rule:evenodd;stroke:none;stroke-width:1;stroke-linejoin:round;stroke-miterlimit:4;stroke-dasharray:none;stroke-opacity:1"
       id="path3276"
       sodipodi:cx="58.588848"
       sodipodi:cy="164.22841"
       sodipodi:rx="3.0304577"
       sodipodi:ry="2.5253813"
       d="m 61.619306,164.22841 c 0,1.39473 -1.356782,2.52538 -3.030458,2.52538 -1.673675,0 -3.030458,-1.13065 -3.030458,-2.52538 0,-1.39473 1.356783,-2.52538 3.030458,-2.52538 1.673676,0 3.030458,1.13065 3.030458,2.52538 z"
       transform="matrix(-1.1178867,0,0,1.341464,187.78185,774.40331)" />
    <path
       sodipodi:type="arc"
       style="opacity:1;fill:#ea1d28;fill-opacity:1;fill-rule:evenodd;stroke:none;stroke-width:1;stroke-linejoin:round;stroke-miterlimit:4;stroke-dasharray:none;stroke-opacity:1"
       id="path3278"
       sodipodi:cx="58.588848"
       sodipodi:cy="164.22841"
       sodipodi:rx="3.0304577"
       sodipodi:ry="2.5253813"
       d="m 61.619306,164.22841 c 0,1.39473 -1.356782,2.52538 -3.030458,2.52538 -1.673675,0 -3.030458,-1.13065 -3.030458,-2.52538 0,-1.39473 1.356783,-2.52538 3.030458,-2.52538 1.673676,0 3.030458,1.13065 3.030458,2.52538 z"
       transform="matrix(-1.1178867,0,0,1.341464,178.81674,779.07526)" />
    <path
       sodipodi:type="arc"
       style="opacity:1;fill:#ea1d28;fill-opacity:1;fill-rule:evenodd;stroke:none;stroke-width:1;stroke-linejoin:round;stroke-miterlimit:4;stroke-dasharray:none;stroke-opacity:1"
       id="path3280"
       sodipodi:cx="58.588848"
       sodipodi:cy="164.22841"
       sodipodi:rx="3.0304577"
       sodipodi:ry="2.5253813"
       d="m 61.619306,164.22841 c 0,1.39473 -1.356782,2.52538 -3.030458,2.52538 -1.673675,0 -3.030458,-1.13065 -3.030458,-2.52538 0,-1.39473 1.356783,-2.52538 3.030458,-2.52538 1.673676,0 3.030458,1.13065 3.030458,2.52538 z"
       transform="matrix(-1.1178867,0,0,1.341464,178.81674,768.46866)" />
    <path
       sodipodi:type="arc"
       style="opacity:1;fill:#ea1d28;fill-opacity:1;fill-rule:evenodd;stroke:none;stroke-width:1;stroke-linejoin:round;stroke-miterlimit:4;stroke-dasharray:none;stroke-opacity:1"
       id="path3282"
       sodipodi:cx="58.588848"
       sodipodi:cy="164.22841"
       sodipodi:rx="3.0304577"
       sodipodi:ry="2.5253813"
       d="m 61.619306,164.22841 c 0,1.39473 -1.356782,2.52538 -3.030458,2.52538 -1.673675,0 -3.030458,-1.13065 -3.030458,-2.52538 0,-1.39473 1.356783,-2.52538 3.030458,-2.52538 1.673676,0 3.030458,1.13065 3.030458,2.52538 z"
       transform="matrix(-1.1178867,0,0,1.341464,188.03439,764.04925)" />
    <path
       sodipodi:type="arc"
       style="opacity:1;fill:#ea1d28;fill-opacity:1;fill-rule:evenodd;stroke:none;stroke-width:1;stroke-linejoin:round;stroke-miterlimit:4;stroke-dasharray:none;stroke-opacity:1"
       id="path3284"
       sodipodi:cx="58.588848"
       sodipodi:cy="164.22841"
       sodipodi:rx="3.0304577"
       sodipodi:ry="2.5253813"
       d="m 61.619306,164.22841 c 0,1.39473 -1.356782,2.52538 -3.030458,2.52538 -1.673675,0 -3.030458,-1.13065 -3.030458,-2.52538 0,-1.39473 1.356783,-2.52538 3.030458,-2.52538 1.673676,0 3.030458,1.13065 3.030458,2.52538 z"
       transform="matrix(-1.1178867,0,0,1.341464,196.74695,769.85762)" />
    <path
       style="opacity:1;fill:#24b34b;fill-opacity:1;fill-rule:evenodd;stroke:none;stroke-width:1;stroke-linecap:butt;stroke-linejoin:miter;marker:none;marker-start:none;marker-mid:none;marker-end:none;stroke-miterlimit:4;stroke-dasharray:none;stroke-dashoffset:0;stroke-opacity:1;visibility:visible;display:inline;overflow:visible;enable-background:accumulate"
       d="M 118.69292,144.53043 L 118.81919,149.58119 C 110.54026,140.44558 103.11927,130.94699 88.893424,124.32738 C 89.360917,124.32738 85.131401,132.53757 82.201164,135.6916 C 78.52184,139.65193 67.840364,141.29054 67.80649,141.12117 C 67.80649,141.12117 72.201553,133.49216 74.877558,130.89337 C 77.922724,127.93607 86.74685,123.19096 86.74685,123.19096 C 84.622033,121.50012 82.007439,119.97254 79.170706,118.519 C 79.170706,118.519 71.474426,125.96601 67.301413,127.61038 C 61.848273,129.75919 47.855977,129.50441 47.855977,129.50441 C 47.855977,129.50441 55.867809,120.45686 60.482884,118.519 C 64.768055,116.71967 76.10961,117.20401 76.10961,117.20401 L 63.448349,105.0732 C 63.448349,105.0732 58.524539,113.15013 55.810928,114.98347 C 52.018756,117.54549 41.416254,120.03423 41.416254,120.03423 C 41.416254,120.03423 46.313221,110.45626 48.992399,107.9124 C 52.027727,105.03037 60.356614,103.11418 60.356614,103.11418 L 53.916892,97.937146 C 54.51844,97.696527 50.931325,104.1667 46.719555,106.52345 C 43.199611,108.49307 33.082496,110.69032 33.082496,110.69032 C 33.082496,110.69032 37.974343,102.7427 40.78491,100.58879 C 43.94207,98.169272 52.275394,96.548186 52.275394,96.548186 L 46.467017,91.749961 C 46.467017,91.749961 42.32698,97.345433 40.027295,99.199836 C 36.057168,102.40124 24.592506,102.68186 24.496199,102.10402 C 24.496199,102.10402 29.623544,94.525761 32.703688,92.633845 C 36.160004,90.510873 45.204326,89.982194 45.204326,89.982194 L 44.320443,88.340696 C 44.711206,88.666332 33.581945,88.092057 27.526657,84.173817 C 24.465274,82.192865 18.94036,75.334982 18.94036,75.334982 C 18.963694,75.288315 30.922327,74.683668 35.102801,77.229018 C 38.517923,79.308371 45.078057,86.067853 45.078057,86.067853 C 45.078057,86.067853 43.105403,77.820463 43.436559,74.829906 C 43.82306,71.339552 47.855977,65.485995 47.855977,65.485995 C 47.855977,65.485995 52.82588,73.518387 52.654202,77.355287 C 52.50199,80.757148 47.47717,87.456813 47.47717,87.456813 L 47.855977,89.603387 L 52.654202,94.022804 C 52.654202,94.022804 52.171321,87.088788 52.654202,84.173817 C 53.249355,80.581103 56.568543,72.683332 56.568543,72.683332 C 56.568543,72.683332 60.999099,80.968807 60.735422,84.805162 C 60.487995,88.405094 55.305852,95.538033 55.305852,95.538033 L 61.745574,101.22014 C 61.745574,101.22014 61.109761,93.943413 61.619305,90.992347 C 62.308318,87.001876 65.659916,78.112902 65.659916,78.112902 C 65.659916,78.112902 69.127051,85.642055 69.069181,88.972041 C 68.992908,93.360967 64.018418,102.23029 64.018418,102.23029 L 77.024132,114.09959 C 77.024132,114.09959 74.23825,104.87368 73.362329,100.84133 C 72.393325,96.380461 71.089485,84.805162 71.089485,84.805162 C 71.089485,84.805162 78.62725,90.49505 80.685935,95.285495 C 81.513426,97.211019 83.124957,104.56051 82.958778,106.64972 C 82.731434,109.50788 80.433397,115.99362 80.433397,115.99362 L 87.125657,120.1605 C 87.125657,120.1605 87.043806,115.20919 86.873119,113.34197 C 86.224614,106.2477 91.338686,98.029444 91.797613,98.947298 C 92.069546,98.947298 95.274366,105.98971 94.954339,109.30136 C 94.490134,114.10496 90.525486,122.41448 90.282384,121.92827 C 103.74931,128.82285 110.98637,136.7142 118.69292,144.53043 z"
       id="path3286"
       transform="translate(0,811.36218)"
       sodipodi:nodetypes="cccscsccscsccscsccscsccscsccscscscscccscsccscsccscssccscscc" />
    <path
       style="opacity:1;fill:#24b34b;fill-opacity:1;fill-rule:evenodd;stroke:none;stroke-width:1;stroke-linecap:butt;stroke-linejoin:miter;marker:none;marker-start:none;marker-mid:none;marker-end:none;stroke-miterlimit:4;stroke-dasharray:none;stroke-dashoffset:0;stroke-opacity:1;visibility:visible;display:inline;overflow:visible;enable-background:accumulate"
       d="M 80.749076,955.51381 L 80.622806,960.56457 C 88.901736,951.42896 96.322726,941.93037 110.54857,935.31076 C 110.08107,935.31076 114.31059,943.52095 117.24083,946.67498 C 120.92015,950.63531 131.60163,952.27392 131.6355,952.10455 C 131.6355,952.10455 127.24044,944.47554 124.56444,941.87675 C 121.51927,938.91945 112.69514,934.17434 112.69514,934.17434 C 114.81996,932.4835 117.43455,930.95592 120.27129,929.50238 C 120.27129,929.50238 127.96757,936.94939 132.14058,938.59376 C 137.59372,940.74257 151.58602,940.48779 151.58602,940.48779 C 151.58602,940.48779 143.57418,931.44024 138.95911,929.50238 C 134.67394,927.70305 123.33238,928.18739 123.33238,928.18739 L 135.99364,916.05658 C 135.99364,916.05658 140.91745,924.13351 143.63107,925.96685 C 147.42324,928.52887 158.02574,931.01761 158.02574,931.01761 C 158.02574,931.01761 153.12877,921.43964 150.44959,918.89578 C 147.41427,916.01375 139.08538,914.09756 139.08538,914.09756 L 145.5251,908.92052 C 144.92355,908.6799 148.51067,915.15008 152.72244,917.50683 C 156.24238,919.47645 166.3595,921.6737 166.3595,921.6737 C 166.3595,921.6737 161.46765,913.72608 158.65708,911.57217 C 155.49992,909.15265 147.1666,907.53156 147.1666,907.53156 L 152.97498,902.73334 C 152.97498,902.73334 157.11501,908.32881 159.4147,910.18321 C 163.38483,913.38462 174.84949,913.66524 174.94579,913.0874 C 174.94579,913.0874 169.81845,905.50914 166.73831,903.61722 C 163.28199,901.49425 154.23767,900.96557 154.23767,900.96557 L 155.12155,899.32407 C 154.73079,899.64971 165.86005,899.07543 171.91534,895.15719 C 174.97672,893.17624 180.50163,886.31836 180.50163,886.31836 C 180.4783,886.27169 168.51967,885.66704 164.33919,888.21239 C 160.92407,890.29175 154.36394,897.05123 154.36394,897.05123 C 154.36394,897.05123 156.33659,888.80384 156.00543,885.81328 C 155.61893,882.32293 151.58602,876.46937 151.58602,876.46937 C 151.58602,876.46937 146.61611,884.50176 146.78779,888.33866 C 146.94,891.74052 151.96482,898.44019 151.96482,898.44019 L 151.58602,900.58676 L 146.78779,905.00618 C 146.78779,905.00618 147.27067,898.07216 146.78779,895.15719 C 146.19264,891.56448 142.87345,883.66671 142.87345,883.66671 C 142.87345,883.66671 138.44289,891.95218 138.70657,895.78854 C 138.954,899.38847 144.13614,906.52141 144.13614,906.52141 L 137.69642,912.20352 C 137.69642,912.20352 138.33223,904.92679 137.82269,901.97572 C 137.13368,897.98525 133.78208,889.09628 133.78208,889.09628 C 133.78208,889.09628 130.31494,896.62543 130.37281,899.95542 C 130.44909,904.34434 135.42358,913.21367 135.42358,913.21367 L 122.41786,925.08297 C 122.41786,925.08297 125.20374,915.85706 126.07966,911.82471 C 127.04867,907.36384 128.35251,895.78854 128.35251,895.78854 C 128.35251,895.78854 120.81474,901.47843 118.75606,906.26887 C 117.92857,908.19439 116.31703,915.54389 116.48321,917.6331 C 116.71056,920.49126 119.0086,926.977 119.0086,926.977 L 112.31633,931.14388 C 112.31633,931.14388 112.39818,926.19257 112.56887,924.32535 C 113.21738,917.23108 108.1033,909.01282 107.64438,909.93067 C 107.37244,909.93067 104.16762,916.97309 104.48765,920.28474 C 104.95186,925.08834 108.9165,933.39786 109.15961,932.91165 C 95.692686,939.80623 88.455626,947.69758 80.749076,955.51381 z"
       id="path3288"
       sodipodi:nodetypes="cccscsccscsccscsccscsccscsccscscscscccscsccscsccscssccscscc" />
    <path
       style="opacity:1;fill:#3598d4;fill-opacity:1;fill-rule:evenodd;stroke:none;stroke-width:1;stroke-linecap:butt;stroke-linejoin:miter;marker:none;marker-start:none;marker-mid:none;marker-end:none;stroke-miterlimit:4;stroke-dasharray:none;stroke-dashoffset:0;stroke-opacity:1;visibility:visible;display:inline;overflow:visible;enable-background:accumulate"
       d="M 25.068224,997.61116 77.393465,892.6501 c 2.504611,-3.56439 5.330956,-6.9152 10.668253,-8.59922 -12.909723,-4.85296 -17.049207,-10.15033 -17.241594,-15.60685 -0.389405,-11.0443 9.340312,-16.7129 12.923491,-26.63049 l 1.27003,-6.32296 3.81009,0 0.254006,8.34631 c -1.887286,5.99559 -7.929791,10.36805 -7.62018,19.4747 0.255108,7.50354 9.542492,14.37906 15.748373,14.92218 l -0.508012,-16.18677 -9.144217,1.5175 c 5.427428,-11.58205 9.885574,-24.29009 12.446291,-39.20232 l 4e-6,194.74702 -3.302078,0.253 0,-4.2997 -5.080121,2.5292 0.254007,-41.22567 5.588133,-4.80544 -0.254007,-79.16341 c -3.295764,0.33787 -6.525255,0.46127 -11.684277,6.82879 L 28.116296,1000.6462 c -1.963457,0.8751 -3.458525,0.8174 -3.048072,-3.03504 z"
       id="path3290"
       sodipodi:nodetypes="cccsccccscccccccccccccc" />
    <path
       style="opacity:1;fill:#ffffff;fill-opacity:1;fill-rule:evenodd;stroke:none;stroke-width:1;stroke-linecap:butt;stroke-linejoin:miter;marker:none;marker-start:none;marker-mid:none;marker-end:none;stroke-miterlimit:4;stroke-dasharray:none;stroke-dashoffset:0;stroke-opacity:1;visibility:visible;display:inline;overflow:visible;enable-background:accumulate"
       d="M 174.93178,997.61119 122.60653,892.65011 c -2.50461,-3.56439 -5.33096,-6.91521 -10.66825,-8.59922 12.90972,-4.85296 17.0492,-10.15034 17.24158,-15.60686 0.38942,-11.04431 -9.3403,-16.71291 -12.92348,-26.63049 l -1.27003,-6.32296 -3.81008,0 -0.25401,8.3463 c 1.88728,5.9956 7.92978,10.36805 7.62017,19.47471 -0.2551,7.50355 -9.54248,14.37906 -15.74836,14.92218 l 0.50801,-16.18677 9.1442,1.51751 C 107.01887,851.98245 102.56072,839.2744 100,824.36218 l 0,194.74702 3.30208,0.253 0,-4.2997 5.08012,2.5292 -0.25401,-41.22565 -5.58813,-4.80544 0.25401,-79.16343 c 3.29576,0.33787 6.52525,0.46128 11.68427,6.8288 l 57.40536,101.42022 c 1.96346,0.8751 3.45853,0.8174 3.04808,-3.03501 z"
       id="path3292"
       sodipodi:nodetypes="cccsccccscccccccccccccc" />
  </g>
</svg>
