<svg xmlns="http://www.w3.org/2000/svg" viewBox="0 0 1010 1010"><defs><style>.cls-1{fill:#fff;}</style></defs><title>Ресурс 18</title><g id="Слой_2" data-name="Слой 2"><g id="Слой_1-2" data-name="Слой 1"><path class="cls-1" d="M375.91,694.18V902.57l104.2-104.2-104.2-104.2Zm104.2-482.56-104.2-104.2V315.82l104.2-104.2ZM773.49,505,669.29,400.8V609.2L773.49,505ZM340.71,609.2V400.8L236.51,505l104.2,104.2Zm293.38,85-104.2,104.2,104.2,104.2V694.18ZM529.89,211.62l104.2,104.2V107.43l-104.2,104.2ZM400.8,340.71H609.2L505,236.51,400.8,340.71Zm397.57,139.4,104.2-104.2H694.18l104.2,104.2ZM107.43,375.91l104.2,104.2,104.2-104.2ZM694.18,634.09H902.57l-104.2-104.2-104.2,104.2ZM211.62,529.89l-104.2,104.2H315.82l-104.2-104.2ZM609.2,669.29H400.8L505,773.49l104.2-104.2Zm-556.71-30L186.73,505,52.49,370.76a17.6,17.6,0,0,1,12.44-30H340.71V64.93a17.6,17.6,0,0,1,30-12.44L505,186.73,639.24,52.49a17.6,17.6,0,0,1,30,12.44V340.71H945.07a17.6,17.6,0,0,1,12.44,30L823.27,505,957.51,639.24a17.6,17.6,0,0,1-12.44,30H669.29V945.07h0a17.6,17.6,0,0,1-30,12.44L505,823.27,370.76,957.51a17.6,17.6,0,0,1-30-12.44h0V669.29H64.93a17.6,17.6,0,0,1-12.44-30ZM162.18,187.07a17.6,17.6,0,0,1,24.89-24.89l74,74a17.6,17.6,0,0,1-24.89,24.89l-74-74Zm24.89,660.75a17.6,17.6,0,0,1-24.89-24.89l74-74a17.6,17.6,0,0,1,24.89,24.89l-74,74ZM822.93,162.18a17.6,17.6,0,1,1,24.89,24.89l-74,74a17.6,17.6,0,0,1-24.89-24.89l74-74Zm24.89,660.75a17.6,17.6,0,1,1-24.89,24.89l-74-74a17.6,17.6,0,0,1,24.89-24.89l74,74ZM505,480.11l104.2-104.2H400.8L505,480.11ZM375.91,609.2,480.11,505,375.91,400.8V609.2ZM505,529.89,400.8,634.09H609.2L505,529.89ZM634.09,400.8,529.89,505l104.2,104.2V400.8ZM505,0a26.29,26.29,0,0,1,18.63,7.73l0,0a26.32,26.32,0,0,1,0,37.26l0,0a26.33,26.33,0,0,1-37.27,0l0,0a26.32,26.32,0,0,1,0-37.26l0,0A26.29,26.29,0,0,1,505,0Zm0,957.22A26.29,26.29,0,0,1,523.63,965l0,0a26.32,26.32,0,0,1,0,37.26l0,0a26.33,26.33,0,0,1-37.27,0l0,0a26.32,26.32,0,0,1,0-37.26l0,0A26.28,26.28,0,0,1,505,957.22ZM0,505a26.28,26.28,0,0,1,7.73-18.63l0,0a26.32,26.32,0,0,1,37.26,0l0,0a26.33,26.33,0,0,1,0,37.27l0,0a26.32,26.32,0,0,1-37.26,0l0,0A26.29,26.29,0,0,1,0,505Zm957.22,0A26.28,26.28,0,0,1,965,486.37l0,0a26.32,26.32,0,0,1,37.26,0l0,0a26.33,26.33,0,0,1,0,37.27l0,0a26.32,26.32,0,0,1-37.26,0l0,0A26.29,26.29,0,0,1,957.22,505Z"/></g></g></svg>